# Blender v2.93.0 OBJ File: 'comics.blend'
# www.blender.org
mtllib comics.mtl
o c1_Plano.004
v -3.510098 1.557556 3.613007
v -3.510098 0.544531 3.613007
v -3.510098 0.544531 2.910412
v -3.510098 1.557556 2.910412
v -3.610098 1.557556 3.613007
v -3.610098 0.544531 3.613007
v -3.610098 0.544531 2.910412
v -3.610098 1.557556 2.910412
vt 1.000000 0.953213
vt 0.000000 0.000000
vt 1.000000 0.000000
vt 0.000000 0.000000
vt 1.000000 0.953213
vt 1.000000 0.000000
vt 0.000000 0.953213
vt 0.000000 0.953213
vn 1.0000 0.0000 0.0000
vn -1.0000 0.0000 0.0000
vn 0.0000 1.0000 0.0000
vn 0.0000 0.0000 1.0000
vn 0.0000 0.0000 -1.0000
vn 0.0000 -1.0000 0.0000
usemtl c12
s off
f 4/1/1 2/2/1 3/3/1
f 6/4/2 8/5/2 7/6/2
f 4/1/3 5/7/3 1/8/3
f 1/8/4 6/4/4 2/2/4
f 3/3/5 8/5/5 4/1/5
f 2/2/6 7/6/6 3/3/6
f 4/1/1 1/8/1 2/2/1
f 6/4/2 5/7/2 8/5/2
f 4/1/3 8/5/3 5/7/3
f 1/8/4 5/7/4 6/4/4
f 3/3/5 7/6/5 8/5/5
f 2/2/6 6/4/6 7/6/6
o c2_Plano.005
v -3.610098 0.544109 1.720421
v -3.610098 1.557977 1.720421
v -3.610098 0.544109 2.423859
v -3.610098 1.557977 2.423859
v -3.510098 0.544109 2.423859
v -3.510098 0.544109 1.720421
v -3.510098 1.557977 2.423859
v -3.510098 1.557977 1.720421
vt 0.922970 0.637077
vt 0.858687 0.592046
vt 0.858687 0.637077
vt 0.000000 0.000000
vt 1.000000 0.930671
vt 1.000000 0.000000
vt 0.922970 0.637077
vt 0.858687 0.637077
vt 0.922970 0.592046
vt 0.858687 0.592046
vt 0.922970 0.592046
vt 0.000000 0.930671
vn 1.0000 0.0000 0.0000
vn -1.0000 0.0000 0.0000
vn 0.0000 0.0000 1.0000
vn 0.0000 1.0000 0.0000
vn 0.0000 0.0000 -1.0000
vn 0.0000 -1.0000 0.0000
usemtl c11
s off
f 10/9/7 11/10/7 9/11/7
f 13/12/8 16/13/8 14/14/8
f 9/11/9 16/15/9 10/9/9
f 11/10/10 14/16/10 9/11/10
f 12/17/11 13/18/11 11/10/11
f 10/9/12 15/19/12 12/17/12
f 10/9/7 12/17/7 11/10/7
f 13/12/8 15/20/8 16/13/8
f 9/11/9 14/16/9 16/15/9
f 11/10/10 13/18/10 14/16/10
f 12/17/11 15/19/11 13/18/11
f 10/9/12 16/15/12 15/19/12
o c3_Plano.006
v -3.610098 0.541226 0.527969
v -3.610098 1.560860 0.527969
v -3.610098 0.541226 1.237173
v -3.610098 1.560860 1.237173
v -3.510098 0.541226 1.237173
v -3.510098 0.541226 0.527969
v -3.510098 1.560860 1.237173
v -3.510098 1.560860 0.527969
vt 0.923153 0.713413
vt 0.858504 0.668013
vt 0.858504 0.713413
vt 0.000000 0.000000
vt 1.000000 1.000000
vt 1.000000 0.000000
vt 0.923153 0.713413
vt 0.858504 0.713413
vt 0.923153 0.668013
vt 0.858504 0.668013
vt 0.923153 0.668013
vt 0.000000 1.000000
vn 1.0000 0.0000 0.0000
vn -1.0000 0.0000 0.0000
vn 0.0000 0.0000 1.0000
vn 0.0000 1.0000 0.0000
vn 0.0000 0.0000 -1.0000
vn 0.0000 -1.0000 0.0000
usemtl c10
s off
f 18/21/13 19/22/13 17/23/13
f 21/24/14 24/25/14 22/26/14
f 17/23/15 24/27/15 18/21/15
f 19/22/16 22/28/16 17/23/16
f 20/29/17 21/30/17 19/22/17
f 18/21/18 23/31/18 20/29/18
f 18/21/13 20/29/13 19/22/13
f 21/24/14 23/32/14 24/25/14
f 17/23/15 22/28/15 24/27/15
f 19/22/16 21/30/16 22/28/16
f 20/29/17 23/31/17 21/30/17
f 18/21/18 24/27/18 23/31/18
o c4_Plano.008
v -3.610098 0.545790 -0.657037
v -3.610098 1.556297 -0.657037
v -3.610098 0.545790 0.043039
v -3.610098 1.556297 0.043039
v -3.510098 0.545790 0.043039
v -3.510098 0.545790 -0.657037
v -3.510098 1.556297 0.043039
v -3.510098 1.556297 -0.657037
vt 0.922864 0.789271
vt 0.858793 0.744456
vt 0.858793 0.789271
vt 0.000000 0.000000
vt 1.000000 1.000000
vt 1.000000 0.000000
vt 0.922864 0.789271
vt 0.858793 0.789271
vt 0.922864 0.744456
vt 0.858793 0.744456
vt 0.922864 0.744456
vt 0.000000 1.000000
vn 1.0000 0.0000 0.0000
vn -1.0000 0.0000 0.0000
vn 0.0000 0.0000 1.0000
vn 0.0000 1.0000 0.0000
vn 0.0000 0.0000 -1.0000
vn 0.0000 -1.0000 0.0000
usemtl c9
s off
f 26/33/19 27/34/19 25/35/19
f 29/36/20 32/37/20 30/38/20
f 25/35/21 32/39/21 26/33/21
f 27/34/22 30/40/22 25/35/22
f 28/41/23 29/42/23 27/34/23
f 26/33/24 31/43/24 28/41/24
f 26/33/19 28/41/19 27/34/19
f 29/36/20 31/44/20 32/37/20
f 25/35/21 30/40/21 32/39/21
f 27/34/22 29/42/22 30/40/22
f 28/41/23 31/43/23 29/42/23
f 26/33/24 32/39/24 31/43/24
o c5_Plano.009
v -3.610098 0.545960 -1.846436
v -3.610098 1.556127 -1.846436
v -3.610098 0.545960 -1.146700
v -3.610098 1.556127 -1.146700
v -3.510098 0.545960 -1.146700
v -3.510098 0.545960 -1.846436
v -3.510098 1.556127 -1.146700
v -3.510098 1.556127 -1.846436
vt 0.922853 0.865411
vt 0.858804 0.820617
vt 0.858804 0.865411
vt 0.000000 0.000000
vt 1.000000 1.000000
vt 1.000000 0.000000
vt 0.922853 0.820617
vt 0.858804 0.820617
vt 0.922853 0.820617
vt 0.922853 0.865411
vt 0.858804 0.865411
vt 0.000000 1.000000
vn 1.0000 0.0000 0.0000
vn -1.0000 0.0000 0.0000
vn 0.0000 0.0000 -1.0000
vn 0.0000 -1.0000 0.0000
vn 0.0000 0.0000 1.0000
vn 0.0000 1.0000 0.0000
usemtl c8
s off
f 34/45/25 35/46/25 33/47/25
f 37/48/26 40/49/26 38/50/26
f 36/51/27 37/52/27 35/46/27
f 34/45/28 39/53/28 36/51/28
f 33/47/29 40/54/29 34/45/29
f 35/46/30 38/55/30 33/47/30
f 34/45/25 36/51/25 35/46/25
f 37/48/26 39/56/26 40/49/26
f 36/51/27 39/53/27 37/52/27
f 34/45/28 40/54/28 39/53/28
f 33/47/29 38/55/29 40/54/29
f 35/46/30 37/52/30 38/55/30
o c6_Plano.011
v -3.610098 0.543898 -3.038067
v -3.610098 1.558189 -3.038067
v -3.610098 0.543898 -2.334207
v -3.610098 1.558189 -2.334207
v -3.510098 0.543898 -2.334207
v -3.510098 0.543898 -3.038067
v -3.510098 1.558189 -2.334207
v -3.510098 1.558189 -3.038067
vt 0.922984 0.941694
vt 0.858673 0.896636
vt 0.858674 0.941694
vt 0.000000 0.000000
vt 1.000000 1.000000
vt 1.000000 0.000000
vt 0.858674 0.941694
vt 0.922984 0.896636
vt 0.858673 0.896636
vt 0.922984 0.896636
vt 0.922984 0.941694
vt 0.000000 1.000000
vn 1.0000 0.0000 0.0000
vn -1.0000 0.0000 0.0000
vn 0.0000 1.0000 0.0000
vn 0.0000 0.0000 -1.0000
vn 0.0000 -1.0000 0.0000
vn 0.0000 0.0000 1.0000
usemtl c7
s off
f 42/57/31 43/58/31 41/59/31
f 45/60/32 48/61/32 46/62/32
f 43/58/33 46/63/33 41/59/33
f 44/64/34 45/65/34 43/58/34
f 42/57/35 47/66/35 44/64/35
f 41/59/36 48/67/36 42/57/36
f 42/57/31 44/64/31 43/58/31
f 45/60/32 47/68/32 48/61/32
f 43/58/33 45/65/33 46/63/33
f 44/64/34 47/66/34 45/65/34
f 42/57/35 48/67/35 47/66/35
f 41/59/36 46/63/36 48/67/36
o c7_Plano.012
v -3.305953 0.579227 -3.308639
v -3.305953 1.522859 -3.308639
v -2.622167 0.579227 -3.308639
v -2.622167 1.522859 -3.308639
v -3.305953 0.579227 -3.208639
v -3.305953 1.522859 -3.208639
v -2.622167 0.579227 -3.208639
v -2.622167 1.522859 -3.208639
vt 0.632658 0.479985
vt 0.692489 0.479985
vt 0.692489 0.479985
vt 0.632658 0.436213
vt 0.632658 0.479985
vt 0.000000 0.000000
vt 1.000000 1.000000
vt 1.000000 0.000000
vt 0.692489 0.436213
vt 0.632658 0.436213
vt 0.692489 0.436213
vt 0.000000 1.000000
vn 1.0000 0.0000 0.0000
vn 0.0000 -1.0000 0.0000
vn 0.0000 0.0000 -1.0000
vn -1.0000 0.0000 0.0000
vn 0.0000 0.0000 1.0000
vn 0.0000 1.0000 0.0000
usemtl c6
s off
f 50/69/37 53/70/37 49/71/37
f 52/72/38 54/73/38 50/69/38
f 53/74/39 56/75/39 55/76/39
f 51/77/40 56/78/40 52/72/40
f 52/72/41 49/71/41 51/77/41
f 49/71/42 55/79/42 51/77/42
f 50/69/37 54/73/37 53/70/37
f 52/72/38 56/78/38 54/73/38
f 53/74/39 54/80/39 56/75/39
f 51/77/40 55/79/40 56/78/40
f 52/72/41 50/69/41 49/71/41
f 49/71/42 53/70/42 55/79/42
o c8_Plano.013
v -1.372463 0.569678 -3.308639
v -1.372463 1.532408 -3.308639
v -2.075348 0.569678 -3.308639
v -2.075348 1.532408 -3.308639
v -2.075348 0.569678 -3.208639
v -1.372463 0.569678 -3.208639
v -2.075348 1.532408 -3.208639
v -1.372463 1.532408 -3.208639
vt 0.632053 0.356212
vt 0.693094 0.401208
vt 0.693094 0.356212
vt 0.000000 0.000000
vt 1.000000 1.000000
vt 1.000000 0.000000
vt 0.632053 0.356212
vt 0.693094 0.356212
vt 0.632053 0.401208
vt 0.693094 0.401208
vt 0.632053 0.401208
vt 0.000000 1.000000
vn 0.0000 0.0000 1.0000
vn 0.0000 0.0000 -1.0000
vn -1.0000 0.0000 0.0000
vn 0.0000 1.0000 0.0000
vn 1.0000 0.0000 0.0000
vn 0.0000 -1.0000 0.0000
usemtl c5
s off
f 58/81/43 59/82/43 57/83/43
f 61/84/44 64/85/44 62/86/44
f 57/83/45 64/87/45 58/81/45
f 59/82/46 62/88/46 57/83/46
f 60/89/47 61/90/47 59/82/47
f 58/81/48 63/91/48 60/89/48
f 58/81/43 60/89/43 59/82/43
f 61/84/44 63/92/44 64/85/44
f 57/83/45 62/88/45 64/87/45
f 59/82/46 61/90/46 62/88/46
f 60/89/47 63/91/47 61/90/47
f 58/81/48 64/87/48 63/91/48
o c9_Plano.014
v -0.133508 0.570877 -3.308639
v -0.133508 1.531210 -3.308639
v -0.833995 0.570877 -3.308639
v -0.833995 1.531210 -3.308639
v -0.833995 0.570877 -3.208639
v -0.133508 0.570877 -3.208639
v -0.833995 1.531210 -3.208639
v -0.133508 1.531210 -3.208639
vt 0.632129 0.276900
vt 0.693018 0.321742
vt 0.693018 0.276900
vt 0.000000 0.000000
vt 1.000000 1.000000
vt 1.000000 0.000000
vt 0.632129 0.321742
vt 0.693018 0.321742
vt 0.632129 0.321742
vt 0.632129 0.276900
vt 0.693018 0.276900
vt 0.000000 1.000000
vn 0.0000 0.0000 1.0000
vn 0.0000 0.0000 -1.0000
vn 1.0000 0.0000 0.0000
vn 0.0000 -1.0000 0.0000
vn -1.0000 0.0000 0.0000
vn 0.0000 1.0000 0.0000
usemtl c4
s off
f 66/93/49 67/94/49 65/95/49
f 69/96/50 72/97/50 70/98/50
f 68/99/51 69/100/51 67/94/51
f 66/93/52 71/101/52 68/99/52
f 65/95/53 72/102/53 66/93/53
f 67/94/54 70/103/54 65/95/54
f 66/93/49 68/99/49 67/94/49
f 69/96/50 71/104/50 72/97/50
f 68/99/51 71/101/51 69/100/51
f 66/93/52 72/102/52 71/101/52
f 65/95/53 70/103/53 72/102/53
f 67/94/54 69/100/54 70/103/54
o c10_Plano.015
v 1.108289 0.569234 -3.308639
v 1.108289 1.532852 -3.308639
v 0.404517 0.569234 -3.308639
v 0.404517 1.532852 -3.308639
v 0.404517 0.569234 -3.208639
v 0.404517 1.532852 -3.208639
v 1.108289 0.569234 -3.208639
v 1.108289 1.532852 -3.208639
vt 0.632025 0.197406
vt 0.693122 0.242458
vt 0.693122 0.197406
vt 0.000000 0.000000
vt 1.000000 1.000000
vt 1.000000 0.000000
vt 0.632025 0.197406
vt 0.693122 0.197406
vt 0.632025 0.242458
vt 0.632025 0.242458
vt 0.693122 0.242458
vt 0.000000 1.000000
vn 0.0000 0.0000 1.0000
vn 0.0000 0.0000 -1.0000
vn -1.0000 0.0000 0.0000
vn 0.0000 1.0000 0.0000
vn 0.0000 -1.0000 0.0000
vn 1.0000 0.0000 0.0000
usemtl c3
s off
f 74/105/55 75/106/55 73/107/55
f 77/108/56 80/109/56 79/110/56
f 73/107/57 80/111/57 74/105/57
f 75/106/58 79/112/58 73/107/58
f 74/105/59 78/113/59 76/114/59
f 76/114/60 77/115/60 75/106/60
f 74/105/55 76/114/55 75/106/55
f 77/108/56 78/116/56 80/109/56
f 73/107/57 79/112/57 80/111/57
f 75/106/58 77/115/58 79/112/58
f 74/105/59 80/111/59 78/113/59
f 76/114/60 78/113/60 77/115/60
o c11_Plano.016
v 2.350049 0.567629 -3.308639
v 2.350049 1.534457 -3.308639
v 1.643065 0.567629 -3.308639
v 1.643065 1.534457 -3.308639
v 1.643065 0.567629 -3.208639
v 2.350049 0.567629 -3.208639
v 1.643065 1.534457 -3.208639
v 2.350049 1.534457 -3.208639
vt 0.631923 0.117914
vt 0.693224 0.163172
vt 0.693224 0.117914
vt 0.000000 0.000000
vt 1.000000 1.000000
vt 1.000000 0.000000
vt 0.631923 0.163172
vt 0.693224 0.163172
vt 0.631923 0.163172
vt 0.631923 0.117914
vt 0.693224 0.117914
vt 0.000000 1.000000
vn 0.0000 0.0000 1.0000
vn 0.0000 0.0000 -1.0000
vn 1.0000 0.0000 0.0000
vn 0.0000 -1.0000 0.0000
vn -1.0000 0.0000 0.0000
vn 0.0000 1.0000 0.0000
usemtl Material
s off
f 82/117/61 83/118/61 81/119/61
f 85/120/62 88/121/62 86/122/62
f 84/123/63 85/124/63 83/118/63
f 82/117/64 87/125/64 84/123/64
f 81/119/65 88/126/65 82/117/65
f 83/118/66 86/127/66 81/119/66
f 82/117/61 84/123/61 83/118/61
f 85/120/62 87/128/62 88/121/62
f 84/123/63 87/125/63 85/124/63
f 82/117/64 88/126/64 87/125/64
f 81/119/65 86/127/65 88/126/65
f 83/118/66 85/124/66 86/127/66
o c12_Plano.017
v 3.587592 0.570241 -3.308639
v 3.587592 1.531845 -3.308639
v 2.885832 0.570241 -3.308639
v 2.885832 1.531845 -3.308639
v 2.885832 0.570241 -3.208639
v 3.587592 0.570241 -3.208639
v 2.885832 1.531845 -3.208639
v 3.587592 1.531845 -3.208639
vt 0.632089 0.038692
vt 0.693058 0.083616
vt 0.693058 0.038692
vt 0.000000 0.000000
vt 1.000000 1.000000
vt 1.000000 0.000000
vt 0.632089 0.083616
vt 0.693058 0.083616
vt 0.632089 0.083616
vt 0.632089 0.038692
vt 0.693058 0.038692
vt 0.000000 1.000000
vn 0.0000 0.0000 1.0000
vn 0.0000 0.0000 -1.0000
vn 1.0000 0.0000 0.0000
vn 0.0000 -1.0000 0.0000
vn -1.0000 0.0000 0.0000
vn 0.0000 1.0000 0.0000
usemtl c1
s off
f 90/129/67 91/130/67 89/131/67
f 93/132/68 96/133/68 94/134/68
f 92/135/69 93/136/69 91/130/69
f 90/129/70 95/137/70 92/135/70
f 89/131/71 96/138/71 90/129/71
f 91/130/72 94/139/72 89/131/72
f 90/129/67 92/135/67 91/130/67
f 93/132/68 95/140/68 96/133/68
f 92/135/69 95/137/69 93/136/69
f 90/129/70 96/138/70 95/137/70
f 89/131/71 94/139/71 96/138/71
f 91/130/72 93/136/72 94/139/72
o c13_Plano.019
v 3.882751 0.546440 -3.038597
v 3.882751 1.555647 -3.038597
v 3.882751 0.546440 -2.338796
v 3.882751 1.555647 -2.338796
v 3.782751 1.555647 -3.038597
v 3.782751 0.546440 -3.038597
v 3.782751 0.546440 -2.338796
v 3.782751 1.555647 -2.338796
vt 0.858835 0.418310
vt 0.922822 0.463108
vt 0.922823 0.418310
vt 0.000000 0.000000
vt 1.000000 1.000000
vt 1.000000 0.000000
vt 0.858835 0.463108
vt 0.858835 0.463108
vt 0.922822 0.463108
vt 0.858835 0.418310
vt 0.922823 0.418310
vt 0.000000 1.000000
vn -1.0000 0.0000 0.0000
vn 1.0000 0.0000 0.0000
vn 0.0000 -1.0000 0.0000
vn 0.0000 0.0000 1.0000
vn 0.0000 0.0000 -1.0000
vn 0.0000 1.0000 0.0000
usemtl c11
s off
f 100/141/73 97/142/73 99/143/73
f 102/144/74 104/145/74 103/146/74
f 100/141/75 101/147/75 98/148/75
f 98/148/76 102/149/76 97/142/76
f 99/143/77 104/150/77 100/141/77
f 97/142/78 103/151/78 99/143/78
f 100/141/73 98/148/73 97/142/73
f 102/144/74 101/152/74 104/145/74
f 100/141/75 104/150/75 101/147/75
f 98/148/76 101/147/76 102/149/76
f 99/143/77 103/151/77 104/150/77
f 97/142/78 102/149/78 103/151/78
o c14_Plano.020
v 3.882751 0.545423 -1.147186
v 3.882751 1.556664 -1.147186
v 3.882751 0.545423 -1.849020
v 3.882751 1.556664 -1.849020
v 3.782751 0.545423 -1.849020
v 3.782751 1.556664 -1.849020
v 3.782751 0.545423 -1.147186
v 3.782751 1.556664 -1.147186
vt 0.858770 0.342028
vt 0.922887 0.386956
vt 0.922887 0.342028
vt 0.000000 0.000000
vt 1.000000 1.000000
vt 1.000000 0.000000
vt 0.858770 0.342028
vt 0.922887 0.342028
vt 0.858770 0.386956
vt 0.858770 0.386956
vt 0.922887 0.386956
vt 0.000000 1.000000
vn -1.0000 0.0000 0.0000
vn 1.0000 0.0000 0.0000
vn 0.0000 0.0000 -1.0000
vn 0.0000 1.0000 0.0000
vn 0.0000 -1.0000 0.0000
vn 0.0000 0.0000 1.0000
usemtl c9
s off
f 106/153/79 107/154/79 105/155/79
f 109/156/80 112/157/80 111/158/80
f 105/155/81 112/159/81 106/153/81
f 107/154/82 111/160/82 105/155/82
f 106/153/83 110/161/83 108/162/83
f 108/162/84 109/163/84 107/154/84
f 106/153/79 108/162/79 107/154/79
f 109/156/80 110/164/80 112/157/80
f 105/155/81 111/160/81 112/159/81
f 107/154/82 109/163/82 111/160/82
f 106/153/83 112/159/83 110/161/83
f 108/162/84 110/161/84 109/163/84
o c15_Plano.021
v 3.882751 0.545756 0.043074
v 3.882751 1.556331 0.043074
v 3.882751 0.545756 -0.658094
v 3.882751 1.556331 -0.658094
v 3.782751 0.545756 -0.658094
v 3.782751 0.545756 0.043074
v 3.782751 1.556331 -0.658094
v 3.782751 1.556331 0.043074
vt 0.858791 0.265833
vt 0.922866 0.310719
vt 0.922866 0.265833
vt 0.000000 0.000000
vt 1.000000 1.000000
vt 1.000000 0.000000
vt 0.858791 0.265833
vt 0.922866 0.265833
vt 0.858791 0.310719
vt 0.922866 0.310719
vt 0.858791 0.310719
vt 0.000000 1.000000
vn -1.0000 0.0000 0.0000
vn 1.0000 0.0000 0.0000
vn 0.0000 0.0000 -1.0000
vn 0.0000 1.0000 0.0000
vn 0.0000 0.0000 1.0000
vn 0.0000 -1.0000 0.0000
usemtl c7
s off
f 114/165/85 115/166/85 113/167/85
f 117/168/86 120/169/86 118/170/86
f 113/167/87 120/171/87 114/165/87
f 115/166/88 118/172/88 113/167/88
f 116/173/89 117/174/89 115/166/89
f 114/165/90 119/175/90 116/173/90
f 114/165/85 116/173/85 115/166/85
f 117/168/86 119/176/86 120/169/86
f 113/167/87 118/172/87 120/171/87
f 115/166/88 117/174/88 118/172/88
f 116/173/89 119/175/89 117/174/89
f 114/165/90 120/171/90 119/175/90
o c16_Plano.022
v 3.882751 0.542978 1.236444
v 3.882751 1.559108 1.236444
v 3.882751 0.542978 0.529721
v 3.882751 1.559108 0.529721
v 3.782751 0.542978 0.529721
v 3.782751 1.559108 0.529721
v 3.782751 0.542978 1.236444
v 3.782751 1.559108 1.236444
vt 0.858615 0.189439
vt 0.923042 0.234680
vt 0.923042 0.189439
vt 0.000000 0.000000
vt 1.000000 1.000000
vt 1.000000 0.000000
vt 0.858615 0.234680
vt 0.858615 0.234680
vt 0.923042 0.234680
vt 0.858615 0.189439
vt 0.923042 0.189439
vt 0.000000 1.000000
vn -1.0000 0.0000 0.0000
vn 1.0000 0.0000 0.0000
vn 0.0000 -1.0000 0.0000
vn 0.0000 0.0000 1.0000
vn 0.0000 0.0000 -1.0000
vn 0.0000 1.0000 0.0000
usemtl c5
s off
f 122/177/91 123/178/91 121/179/91
f 125/180/92 128/181/92 127/182/92
f 122/177/93 126/183/93 124/184/93
f 124/184/94 125/185/94 123/178/94
f 121/179/95 128/186/95 122/177/95
f 123/178/96 127/187/96 121/179/96
f 122/177/91 124/184/91 123/178/91
f 125/180/92 126/188/92 128/181/92
f 122/177/93 128/186/93 126/183/93
f 124/184/94 126/183/94 125/185/94
f 121/179/95 127/187/95 128/186/95
f 123/178/96 125/185/96 127/187/96
o c17_Plano.023
v 3.882751 0.543690 2.426325
v 3.882751 1.558396 2.426325
v 3.882751 0.543690 1.721026
v 3.882751 1.558396 1.721026
v 3.782751 0.543690 1.721026
v 3.782751 1.558396 1.721026
v 3.782751 0.543690 2.426325
v 3.782751 1.558396 2.426325
vt 0.858660 0.113268
vt 0.922997 0.158418
vt 0.922997 0.113268
vt 0.000000 0.000000
vt 1.000000 1.000000
vt 1.000000 0.000000
vt 0.858660 0.113268
vt 0.922997 0.113268
vt 0.858660 0.158418
vt 0.858660 0.158418
vt 0.922997 0.158418
vt 0.000000 1.000000
vn -1.0000 0.0000 0.0000
vn 1.0000 0.0000 0.0000
vn 0.0000 0.0000 -1.0000
vn 0.0000 1.0000 0.0000
vn 0.0000 -1.0000 0.0000
vn 0.0000 0.0000 1.0000
usemtl c3
s off
f 130/189/97 131/190/97 129/191/97
f 133/192/98 136/193/98 135/194/98
f 129/191/99 136/195/99 130/189/99
f 131/190/100 135/196/100 129/191/100
f 130/189/101 134/197/101 132/198/101
f 132/198/102 133/199/102 131/190/102
f 130/189/97 132/198/97 131/190/97
f 133/192/98 134/200/98 136/193/98
f 129/191/99 135/196/99 136/195/99
f 131/190/100 133/199/100 135/196/100
f 130/189/101 136/195/101 134/197/101
f 132/198/102 134/197/102 133/199/102
o c18_Plano.024
v 3.882751 0.545155 3.615453
v 3.882751 1.556931 3.615453
v 3.882751 0.545155 2.913084
v 3.882751 1.556931 2.913084
v 3.782751 0.545155 2.913084
v 3.782751 0.545155 3.615453
v 3.782751 1.556931 2.913084
v 3.782751 1.556931 3.615453
vt 0.858753 0.037146
vt 0.922904 0.082108
vt 0.922904 0.037146
vt 0.000000 0.000000
vt 1.000000 1.000000
vt 1.000000 0.000000
vt 0.858753 0.037146
vt 0.922904 0.037146
vt 0.858753 0.082108
vt 0.922904 0.082108
vt 0.858753 0.082108
vt 0.000000 1.000000
vn -1.0000 0.0000 0.0000
vn 1.0000 0.0000 0.0000
vn 0.0000 0.0000 -1.0000
vn 0.0000 1.0000 0.0000
vn 0.0000 0.0000 1.0000
vn 0.0000 -1.0000 0.0000
usemtl c1
s off
f 138/201/103 139/202/103 137/203/103
f 141/204/104 144/205/104 142/206/104
f 137/203/105 144/207/105 138/201/105
f 139/202/106 142/208/106 137/203/106
f 140/209/107 141/210/107 139/202/107
f 138/201/108 143/211/108 140/209/108
f 138/201/103 140/209/103 139/202/103
f 141/204/104 143/212/104 144/205/104
f 137/203/105 142/208/105 144/207/105
f 139/202/106 141/210/106 142/208/106
f 140/209/107 143/211/107 141/210/107
f 138/201/108 144/207/108 143/211/108
