# Blender v2.93.6 OBJ File: 'nacimiento.blend'
# www.blender.org
mtllib nacimiento.mtl
o Plane
v -0.032679 -1.000000 -1.820802
v -0.032679 1.000000 -1.820802
v 0.032679 -1.000000 -1.820802
v 0.032679 1.000000 -1.820802
v -0.032679 -1.000000 0.910401
v -0.032679 1.000000 0.910401
v 0.032679 -1.000000 0.910401
v 0.032679 1.000000 0.910401
v -0.032679 -1.000000 0.910401
v -0.032679 1.000000 0.910401
v 0.032679 -1.000000 0.910401
v 0.032679 1.000000 0.910401
vt 0.960459 0.002615
vt 0.989360 1.004725
vt 0.960459 1.004725
vt 0.000000 1.000000
vt 0.030262 0.000000
vt 0.030262 1.000000
vt 1.004682 -0.002042
vt -0.005256 0.030637
vt -0.005256 -0.002042
vt 0.998766 1.000000
vt 0.000000 0.000000
vt 0.998766 0.000000
vt 0.000000 1.000000
vt 0.884396 0.500000
vt 0.884396 1.000000
vt 0.884396 0.500000
vt 0.884396 0.500000
vt 0.884396 0.500000
vt -0.000042 0.997891
vt 0.994183 0.965212
vt 0.994183 0.997891
vt 0.884396 0.500000
vt 0.884396 0.500000
vt 0.884396 0.500000
vt 0.884396 0.500000
vt 0.989360 0.002615
vt 1.004682 0.030637
vt 0.000000 1.000000
vt 0.000000 0.500000
vt -0.000042 0.965212
vn 0.0000 1.0000 0.0000
vn 0.0000 -1.0000 -0.0000
vn 0.0000 0.0000 -1.0000
vn 1.0000 -0.0000 0.0000
vn -1.0000 0.0000 -0.0000
vn 0.0000 0.0000 1.0000
usemtl tela
s off
f 6/1/1 4/2/1 2/3/1
f 3/4/2 5/5/2 1/6/2
f 2/7/3 3/8/3 1/9/3
f 4/10/4 7/11/4 3/12/4
f 1/13/5 6/14/5 2/15/5
f 5/16/6 11/17/6 9/18/6
f 9/19/6 12/20/6 10/21/6
f 7/22/6 12/23/6 11/17/6
f 6/14/6 9/18/6 10/24/6
f 8/25/6 10/24/6 12/23/6
f 6/1/1 8/26/1 4/2/1
f 3/4/2 7/11/2 5/5/2
f 2/7/3 4/27/3 3/8/3
f 4/10/4 8/28/4 7/11/4
f 1/13/5 5/29/5 6/14/5
f 5/16/6 7/22/6 11/17/6
f 9/19/6 11/30/6 12/20/6
f 7/22/6 8/25/6 12/23/6
f 6/14/6 5/16/6 9/18/6
f 8/25/6 6/14/6 10/24/6
