# Blender v2.93.0 OBJ File: 'Road_Set.blend'
# www.blender.org
mtllib calle.mtl
o camino_Plane.004
v 1.000000 0.000000 11.180000
v 1.000000 0.000000 9.180000
v -1.000000 0.000000 11.180000
v -1.000000 0.000000 9.180000
v 1.000000 0.000000 7.180000
v 1.000000 0.000000 5.180000
v -1.000000 0.000000 7.180000
v -1.000000 0.000000 5.180000
v 1.000000 0.000000 9.180000
v 1.000000 0.000000 7.180000
v -1.000000 0.000000 9.180000
v -1.000000 0.000000 7.180000
v 1.000000 0.000000 5.180000
v 1.000000 0.000000 3.180000
v -1.000000 0.000000 5.180000
v -1.000000 0.000000 3.180000
v 1.000000 0.000000 3.180000
v 1.000000 0.000000 1.180000
v -1.000000 0.000000 3.180000
v -1.000000 0.000000 1.180000
vt 1.000000 0.000000
vt 0.000000 1.000000
vt 0.000000 0.000000
vt 1.000000 1.000000
vt 1.000000 0.000000
vt 0.000000 1.000000
vt 0.000000 0.000000
vt 1.000000 1.000000
vt 1.000000 0.000000
vt 0.000000 1.000000
vt 0.000000 0.000000
vt 1.000000 1.000000
vt 1.000000 0.000000
vt 0.000000 1.000000
vt 0.000000 0.000000
vt 1.000000 1.000000
vt 1.000000 0.000000
vt 0.000000 1.000000
vt 0.000000 0.000000
vt 1.000000 1.000000
vn 0.0000 1.0000 0.0000
usemtl Material
s off
f 2/1/1 3/2/1 1/3/1
f 2/1/1 4/4/1 3/2/1
usemtl Material.007
f 6/5/1 7/6/1 5/7/1
f 6/5/1 8/8/1 7/6/1
usemtl Material.008
f 10/9/1 11/10/1 9/11/1
f 10/9/1 12/12/1 11/10/1
v -4.900000 -0.026000 20.825001
v 4.900000 -0.026000 20.825001
v -4.900000 -0.026000 11.025002
v 4.900000 -0.026000 11.025002
vt -0.547398 1.806727
vt 1.225939 1.806728
vt 1.225939 -0.806727
vt -0.547398 -0.806728
vn 0.0000 -1.0000 0.0000
o glorieta_Circle
v -0.000000 0.009000 20.791012
v 0.949312 0.009000 20.697512
v 1.862144 0.009000 20.420609
v 2.703413 0.009000 19.970940
v 3.440791 0.009000 19.365789
v 4.045943 0.009000 18.628410
v 4.495611 0.009000 17.787140
v 4.772515 0.009000 16.874310
v 4.866014 0.009000 15.924997
v 4.772515 0.009000 14.975686
v 4.495611 0.009000 14.062855
v 4.045943 0.009000 13.221585
v 3.440791 0.009000 12.484206
v 2.703412 0.009000 11.879055
v 1.862144 0.009000 11.429387
v 0.949312 0.009000 11.152483
v -0.949312 0.009000 11.152483
v -1.862143 0.009000 11.429387
v -2.703413 0.009000 11.879055
v -3.440791 0.009000 12.484206
v -4.045942 0.009000 13.221584
v -4.495611 0.009000 14.062855
v -4.772515 0.009000 14.975685
v -4.866014 0.009000 15.924998
v -4.772515 0.009000 16.874310
v -4.495611 0.009000 17.787142
v -4.045943 0.009000 18.628410
v -3.440792 0.009000 19.365789
v -2.703413 0.009000 19.970940
v -1.862143 0.009000 20.420609
v -0.949312 0.009000 20.697514
v 0.125968 0.009000 16.558283
v -0.000003 0.009000 16.570690
v 0.247098 0.009000 16.521540
v 0.358727 0.009000 16.461872
v 0.456574 0.009000 16.381571
v 0.536874 0.009000 16.283724
v 0.596542 0.009000 16.172094
v 0.633286 0.009000 16.050966
v 0.645692 0.009000 15.924998
v 0.633286 0.009000 15.799030
v 0.596542 0.009000 15.677901
v 0.536873 0.009000 15.566271
v 0.456574 0.009000 15.468425
v 0.358727 0.009000 15.388124
v 0.247095 0.009000 15.328456
v 0.125969 0.009000 15.291713
v -0.000000 0.009000 15.279306
v -0.125968 0.009000 15.291712
v -0.247095 0.009000 15.328456
v -0.358727 0.009000 15.388125
v -0.456573 0.009000 15.468425
v -0.536874 0.009000 15.566272
v -0.596542 0.009000 15.677902
v -0.633285 0.009000 15.799029
v -0.645692 0.009000 15.924998
v -0.633286 0.009000 16.050966
v -0.596541 0.009000 16.172094
v -0.536874 0.009000 16.283724
v -0.456574 0.009000 16.381571
v -0.358727 0.009000 16.461872
v -0.247095 0.009000 16.521540
v -0.125967 0.009000 16.558283
vt 1.083188 0.599443
vt 5.608349 2.719438
vt 1.055347 0.794511
vt 5.196810 4.104170
vt 1.000737 0.978262
vt 0.921460 1.143626
vt 4.599347 5.350399
vt 0.820553 1.284261
vt 3.838920 6.410230
vt 0.701901 1.394757
vt 2.944752 7.242934
vt 0.570063 1.470867
vt 1.951206 7.816511
vt 0.896466 8.108916
vt 0.430104 1.509667
vt -0.178939 8.108917
vt 0.287403 1.509668
vt -1.233682 7.816514
vt 0.147446 1.470868
vt 0.015606 1.394757
vt -2.227231 7.242945
vt -3.121399 6.410248
vt -0.103044 1.284261
vt -0.203949 1.143630
vt -3.881830 5.350420
vt -0.283230 0.978259
vt -4.479299 4.104193
vt -4.890844 2.719459
vt -0.337839 0.794511
vt -5.100651 1.249431
vt -0.365678 0.599448
vt -0.337841 0.205501
vt -4.479316 -3.104162
vt -0.283232 0.021754
vt -3.881849 -4.350394
vt -0.203950 -0.143615
vt -0.103046 -0.284248
vt -3.121419 -5.410225
vt 0.015606 -0.394747
vt -2.227251 -6.242928
vt 0.147444 -0.470857
vt -1.233703 -6.816507
vt -0.178961 -7.108914
vt 0.287402 -0.509657
vt 0.430104 -0.509658
vt 0.896448 -7.108917
vt 1.951193 -6.816513
vt 0.570063 -0.470857
vt 2.944742 -6.242941
vt 0.701903 -0.394745
vt 3.838912 -5.410238
vt 0.820551 -0.284254
vt 0.921458 -0.143618
vt 4.599346 -4.350406
vt 5.196809 -3.104177
vt 1.000737 0.021751
vt 5.608350 -1.719440
vt 1.055348 0.205499
vt 5.818152 -0.249412
vt 1.083187 0.400563
vt 5.818152 1.249412
vt -4.890860 -1.719426
vt -0.365678 0.400561
vn 0.0000 1.0000 -0.0000