# Blender v2.93.6 OBJ File: 'cristales.blend'
# www.blender.org
mtllib cristales.mtl
o ventanas_Plane.001
v 6.930552 3.982222 3.418995
v 6.930552 3.982222 -3.065663
v 6.930552 6.982223 3.418995
v 6.930552 6.982223 -3.065663
v 8.815197 3.982222 9.818738
v 8.815197 3.982222 5.223954
v 8.815197 6.982223 9.818738
v 8.815197 6.982223 5.223954
v -2.276362 5.982222 18.831192
v 2.285131 5.982222 18.831192
v -2.276362 6.982223 18.831192
v 2.285131 6.982223 18.831192
v 6.930552 3.982222 -11.672862
v 6.930552 6.982222 -11.672862
v 6.930552 3.982222 -17.025135
v 6.930552 6.982223 -17.025135
v -4.869224 -0.017778 -4.421855
v -4.869224 9.982223 -4.421855
v -4.869224 -0.017778 -16.547564
v -4.869224 9.982223 -16.547564
v -6.742568 5.982222 -3.585186
v -6.742568 5.982222 -0.373069
v -6.742568 7.982222 -3.585186
v -6.742568 7.982222 -0.373069
v -9.475400 3.982222 4.175439
v -14.064336 3.982222 4.175439
v -9.475400 6.982223 4.175439
v -14.064336 6.982223 4.175439
v -25.562170 3.982222 4.175439
v -30.248955 3.982222 4.175439
v -25.562170 6.982223 4.175439
v -30.248955 6.982223 4.175439
v 8.815197 3.982222 11.846231
v 8.815197 3.982222 15.199594
v 8.815197 6.982223 11.846231
v 8.815197 6.982223 15.199594
v -11.684857 6.982223 13.783491
v -15.442020 6.982223 13.783491
v -11.684857 3.982222 13.783491
v -15.442020 3.982222 13.783491
v -27.760273 6.982223 13.783491
v -24.452896 6.982223 13.783491
v -27.760273 3.982222 13.783491
v -24.452896 3.982222 13.783491
v 8.815197 9.982223 2.892281
v 8.815197 16.976797 2.892281
v 8.815197 16.976797 -2.787722
v 8.815197 9.982223 -2.787721
v 8.815197 15.960493 7.509662
v 8.815197 11.014365 7.509662
v 8.815197 15.960493 5.842551
v 8.815197 11.014365 5.842551
v 5.996048 -0.017778 -9.145914
v 5.996048 9.982223 -9.145914
v 5.996048 -0.017778 -7.810703
v 5.996048 9.982223 -7.810703
v -2.994103 6.982222 13.505683
v -2.995880 6.982223 16.166481
v -2.994103 -0.022141 13.505683
v -2.995880 -0.022140 16.166481
vt 0.836610 0.310872
vt 0.720829 0.182965
vt 0.836610 0.182965
vt 0.894501 0.182965
vt 0.720829 0.000000
vt 0.894501 0.000000
vt 0.945947 0.967718
vt 1.000000 0.398290
vt 1.000000 0.967718
vt 0.405235 1.000000
vt 0.347344 0.740256
vt 0.405235 0.740256
vt 0.838229 0.659597
vt 0.664557 0.398291
vt 0.838229 0.398291
vt 0.664557 0.665169
vt 0.490885 0.398291
vt 0.664557 0.398291
vt 0.483098 0.569428
vt 0.347344 0.740256
vt 0.347344 0.569428
vt 0.347344 0.783371
vt 0.173672 0.569428
vt 0.347344 0.569428
vt 0.664557 0.853500
vt 0.490885 0.665169
vt 0.664557 0.665169
vt 0.720829 0.000000
vt 0.490885 0.398290
vt 0.490885 0.000000
vt 0.961991 0.000000
vt 0.894501 0.281646
vt 0.894501 0.000000
vt 0.000000 0.827648
vt 0.173672 0.569428
vt 0.173672 0.827648
vt 0.838230 0.797138
vt 0.945947 0.398291
vt 0.945947 0.797138
vt 0.490885 0.569428
vt 0.000000 0.000000
vt 0.490885 0.000000
vt 0.838229 0.872725
vt 0.664557 0.659597
vt 0.838229 0.659597
vt 0.720829 0.310872
vt 0.720829 0.182965
vt 0.945947 0.398290
vt 0.347344 1.000000
vt 0.664557 0.659597
vt 0.490885 0.665169
vt 0.483098 0.740256
vt 0.173672 0.783371
vt 0.490885 0.853500
vt 0.720829 0.398290
vt 0.961991 0.281646
vt 0.000000 0.569428
vt 0.838230 0.398290
vt 0.000000 0.569428
vt 0.664557 0.872725
vn 1.0000 0.0000 0.0000
vn -1.0000 0.0000 0.0000
vn 0.0000 0.0000 1.0000
vn 0.0000 0.0000 -1.0000
vn -1.0000 0.0000 -0.0007
usemtl cristal
s off
f 21/1/1 24/2/1 22/3/1
f 5/4/2 8/5/2 6/6/2
f 56/7/1 53/8/1 54/9/1
f 10/10/3 11/11/3 9/12/3
f 26/13/4 27/14/4 25/15/4
f 30/16/4 31/17/4 29/18/4
f 33/19/1 36/20/1 34/21/1
f 39/22/3 38/23/3 40/24/3
f 44/25/3 41/26/3 43/27/3
f 45/28/2 47/29/2 48/30/2
f 50/31/2 51/32/2 52/33/2
f 4/34/1 1/35/1 2/36/1
f 57/37/5 60/38/5 58/39/5
f 18/40/2 19/41/2 17/42/2
f 15/43/1 14/44/1 13/45/1
f 21/1/1 23/46/1 24/2/1
f 5/4/2 7/47/2 8/5/2
f 56/7/1 55/48/1 53/8/1
f 10/10/3 12/49/3 11/11/3
f 26/13/4 28/50/4 27/14/4
f 30/16/4 32/51/4 31/17/4
f 33/19/1 35/52/1 36/20/1
f 39/22/3 37/53/3 38/23/3
f 44/25/3 42/54/3 41/26/3
f 45/28/2 46/55/2 47/29/2
f 50/31/2 49/56/2 51/32/2
f 4/34/1 3/57/1 1/35/1
f 57/37/5 59/58/5 60/38/5
f 18/40/2 20/59/2 19/41/2
f 15/43/1 16/60/1 14/44/1
