# Blender v2.93.0 OBJ File: 'puerta.blend'
# www.blender.org
mtllib puerta.mtl
o puerta_Plano.007
v -0.883674 0.001043 4.237786
v 0.556326 0.001043 4.237786
v 0.556326 2.001043 4.237786
v -0.883674 2.001043 4.237786
v -0.163673 0.001043 4.237786
v -0.163673 2.001043 4.237786
vt 1.045874 0.865640
vt 1.045874 0.092516
vt 1.045874 0.092516
vt 1.045874 0.865640
vt 1.045874 0.092516
vt 1.045874 0.865640
vn 0.0000 0.0000 1.0000
usemtl Material.001
s off
f 1/1/1 6/2/1 4/3/1
f 5/4/1 3/5/1 6/2/1
f 1/1/1 5/4/1 6/2/1
f 5/4/1 2/6/1 3/5/1
